<svg width="1400" height="900" viewBox="0 0 1400 900" fill="none" xmlns="http://www.w3.org/2000/svg">
  <rect width="1400" height="900" rx="48" fill="#183022"/>
  <defs>
    <linearGradient id="beam" x1="700" y1="160" x2="700" y2="820" gradientUnits="userSpaceOnUse">
      <stop stop-color="#D4AF37" stop-opacity="0.26"/>
      <stop offset="1" stop-color="#D4AF37" stop-opacity="0"/>
    </linearGradient>
  </defs>
  <circle cx="700" cy="320" r="140" fill="#245838"/>
  <ellipse cx="700" cy="680" rx="420" ry="120" fill="#102017"/>
  <rect x="520" y="220" width="360" height="470" rx="32" fill="#112017"/>
  <rect x="560" y="260" width="280" height="300" rx="28" fill="#1F3A2A"/>
  <rect x="560" y="260" width="280" height="80" rx="28" fill="#20402D"/>
  <circle cx="700" cy="300" r="26" fill="#D4AF37"/>
  <path d="M620 360H780" stroke="#D4AF37" stroke-width="5" stroke-linecap="round"/>
  <path d="M620 410H840" stroke="#D4AF37" stroke-width="4" stroke-linecap="round" stroke-dasharray="12 12"/>
  <path d="M620 460H840" stroke="#D4AF37" stroke-width="4" stroke-linecap="round" stroke-dasharray="12 12" opacity="0.7"/>
  <rect x="640" y="520" width="120" height="140" rx="26" fill="#D4AF37" fill-opacity="0.22"/>
  <rect x="760" y="520" width="120" height="140" rx="26" fill="#D4AF37" fill-opacity="0.12"/>
  <path d="M460 540L700 820L940 540" fill="url(#beam)"/>
  <g opacity="0.4">
    <circle cx="260" cy="340" r="48" fill="#D4AF37"/>
    <circle cx="1140" cy="280" r="44" fill="#D4AF37"/>
    <circle cx="1120" cy="620" r="32" fill="#D4AF37"/>
  </g>
</svg>
