<svg width="1400" height="900" viewBox="0 0 1400 900" fill="none" xmlns="http://www.w3.org/2000/svg">
  <rect width="1400" height="900" rx="48" fill="#14251A"/>
  <path d="M220 640C340 520 380 480 500 520C620 560 720 360 880 360C1040 360 1140 560 1240 620" stroke="#D4AF37" stroke-width="6" stroke-linecap="round" stroke-dasharray="24 24" opacity="0.6"/>
  <circle cx="460" cy="320" r="120" fill="#D4AF37" fill-opacity="0.16"/>
  <circle cx="960" cy="320" r="150" fill="#D4AF37" fill-opacity="0.12"/>
  <circle cx="700" cy="520" r="240" fill="#264734" fill-opacity="0.5"/>
  <g opacity="0.7">
    <path d="M620 520C620 471.086 659.086 432 708 432C756.914 432 796 471.086 796 520C796 568.914 756.914 608 708 608C659.086 608 620 568.914 620 520Z" fill="#2E5F43"/>
    <path d="M840 520C840 471.086 879.086 432 928 432C976.914 432 1016 471.086 1016 520C1016 568.914 976.914 608 928 608C879.086 608 840 568.914 840 520Z" fill="#1F3A2A"/>
  </g>
  <path d="M520 640H980" stroke="#D4AF37" stroke-width="5" stroke-linecap="round" stroke-dasharray="12 18"/>
  <circle cx="680" cy="540" r="36" fill="#D4AF37" fill-opacity="0.6"/>
  <circle cx="920" cy="520" r="28" fill="#D4AF37" fill-opacity="0.5"/>
  <g opacity="0.5">
    <circle cx="200" cy="260" r="44" fill="#D4AF37"/>
    <circle cx="1220" cy="240" r="34" fill="#D4AF37"/>
    <circle cx="1240" cy="660" r="28" fill="#D4AF37"/>
  </g>
</svg>
